<mxfile host="app.diagrams.net" modified="2024-03-14T04:25:48.864Z" agent="Mozilla/5.0 (Windows NT 10.0; Win64; x64) AppleWebKit/537.36 (KHTML, like Gecko) Chrome/122.0.0.0 Safari/537.36" version="24.0.6" etag="QF4s2GwQK6gwxjg84VLi" type="github">
  <diagram name="Page-1" id="VQDiSuF8NzJTnK0B1ZV2">
    <mxGraphModel>
      <root>
        <mxCell id="0" />
        <mxCell id="1" parent="0" />
      </root>
    </mxGraphModel>
  </diagram>
</mxfile>
